:SAMPLES-PER-SECOND 30
:FULLY-SPECIFIED
:DEGREES
1191
root  70.1313 39.7858 -1.84008 -162.946 -83.6339 164.646
RightUpLeg  -0.0353406 -13.3513 -10.8045
RightLeg  10.6686 -4.48722 5.11847
RightFoot  -11.3483 -0.0767206 8.17642
RightToes  0.00048216 0.542163 -0.142577
Spine  9.57238 1.21308 5.79815
Spine1  5.3422 2.63338 -3.56049
HEad  -8.68884 9.16929 -10.5955
LeftShoulder1  8.00406 -12.1279 -44.6006
LeftArm  -12.1022 21.8247 -25.9391
LeftForeArm  25.8824 -19.0392 -3.48272
LeftHand  -0.25398 0.0180481 5.50724
RightShoulder  4.83569 8.83928 33.2345
RightArm  7.72161 -19.8701 33.5001
RightForeArm  113.213 79.6717 107.823
RightHand  -2.19003 6.50299 -21.5327
LeftUpLeg  -15.5922 -6.02817 -1.11291
LeftLeg  23.273 -1.259 -0.271889
LeftFoot  -7.33031 0.165893 -3.48867
LeftToes  1.06246e-005 4.65856e-005 -8.18502e-006
1192
root  69.9857 39.795 -2.0459 -151.622 -85.2401 153.558
RightUpLeg  0.372338 -13.3421 -10.8923
RightLeg  10.6344 -6.2371 4.86375
RightFoot  -11.8408 -0.0440471 8.33321
RightToes  0.00048216 0.542163 -0.142577
Spine  9.42641 1.40935 6.33239
Spine1  4.94679 2.92657 -3.96823
HEad  -8.58401 7.2608 -10.1766
LeftShoulder1  7.94766 -12.0434 -44.5232
LeftArm  -10.0333 23.7295 -26.7431
LeftForeArm  26.4271 -19.1347 -3.59278
LeftHand  -0.25398 0.0180481 5.50724
RightShoulder  4.86372 8.79737 33.5947
RightArm  7.10003 -20.7937 32.4843
RightForeArm  114.821 79.4746 110.328
RightHand  -2.3253 6.83665 -22.2213
LeftUpLeg  -16.9872 -4.09279 -2.14901
LeftLeg  24.5333 -2.6444 -0.990891
LeftFoot  -7.19166 0.212448 -4.6636
LeftToes  1.06246e-005 4.65856e-005 -8.18502e-006
1193
root  69.7812 39.7825 -2.1999 -130.583 -86.4944 132.752
RightUpLeg  0.778528 -13.4667 -11.1158
RightLeg  10.7909 -7.87287 4.59813
RightFoot  -12.3653 -0.00687607 8.6298
RightToes  0.00048216 0.542163 -0.142577
Spine  9.11214 1.55122 7.04687
Spine1  4.9532 3.23537 -4.63758
HEad  -8.77937 5.01468 -10.1848
LeftShoulder1  7.8645 -11.9428 -44.3351
LeftArm  -8.73141 25.508 -27.7931
LeftForeArm  27.1514 -19.4193 -3.61889
LeftHand  -0.25398 0.0180481 5.50724
RightShoulder  4.73649 8.46362 33.6324
RightArm  6.23497 -21.5162 32.3816
RightForeArm  116.344 79.2851 112.531
RightHand  -2.33674 6.95564 -22.1174
LeftUpLeg  -18.4051 -2.46131 -3.0673
LeftLeg  25.3856 -3.30324 -1.37667
LeftFoot  -6.72073 0.271217 -5.72051
LeftToes  1.06246e-005 4.65856e-005 -8.18502e-006
1194
root  69.5374 39.776 -2.31689 -100.04 -86.871 102.398
RightUpLeg  1.36203 -13.6751 -11.4796
RightLeg  10.8218 -9.45092 4.40005
RightFoot  -12.7967 0.0250316 8.81024
RightToes  0.00048216 0.542163 -0.142577
Spine  8.81659 1.67705 7.49763
Spine1  5.19395 3.48328 -5.16817
HEad  -9.24188 2.70504 -10.6791
LeftShoulder1  7.72406 -11.7384 -44.1161
LeftArm  -8.33479 27.1448 -29.1628
LeftForeArm  27.6841 -19.6294 -3.60457
LeftHand  -0.25398 0.0180481 5.50724
RightShoulder  4.5932 8.12365 33.559
RightArm  5.47083 -21.8834 32.6395
RightForeArm  117.5 79.1115 114.315
RightHand  -2.1945 6.55791 -21.4841
LeftUpLeg  -19.6149 -0.684284 -3.83184
LeftLeg  25.1938 -2.37442 -0.89289
LeftFoot  -6.18725 0.311983 -6.11069
LeftToes  1.06246e-005 4.65856e-005 -8.18502e-006
1195
root  69.2607 39.7829 -2.39947 -72.1696 -86.3493 74.7181
RightUpLeg  2.13985 -13.7602 -11.8105
RightLeg  10.469 -10.9538 4.24087
RightFoot  -13.0515 0.0452255 8.96064
RightToes  0.00048216 0.542163 -0.142577
Spine  8.69035 1.77522 7.58237
Spine1  5.2603 3.61467 -5.45802
HEad  -9.47114 0.934095 -11.072
LeftShoulder1  7.59339 -11.5058 -44.037
LeftArm  -8.62826 28.7903 -30.6109
LeftForeArm  28.0471 -19.6175 -3.58739
LeftHand  -0.25398 0.0180481 5.50724
RightShoulder  4.6251 8.13172 33.8022
RightArm  4.88753 -22.2122 32.6095
RightForeArm  118.508 78.9323 115.982
RightHand  -2.08699 6.05293 -21.3313
LeftUpLeg  -20.6069 1.30283 -4.42736
LeftLeg  23.7532 -0.974235 -0.144908
LeftFoot  -5.92305 0.311222 -5.82403
LeftToes  1.06246e-005 4.65856e-005 -8.18502e-006
